<svg width="39" height="33" viewBox="0 0 39 33" fill="none" xmlns="http://www.w3.org/2000/svg">
<path fill-rule="evenodd" clip-rule="evenodd" d="M12.1445 1H26.8588V5.57144H12.1445V1ZM11.1445 5.57144V1V0H12.1445H26.8588H27.8588V1V5.57144H38H39V6.57144V31.3143V32.3143H38H1H0V31.3143V6.57144V5.57144H1H11.1445ZM11.1445 6.57144H1V31.3143H38V6.57144H27.8588V6.68571H26.8588H12.1445H11.1445V6.57144ZM20.171 16.6H18.8281V21.2857H20.171V16.6ZM18.8281 15.6H17.8281V16.6V18.9429L1.11384 18.9429L1.11384 19.9429L17.8281 19.9429V21.2857V22.2857H18.8281H20.171H21.171V21.2857V16.6V15.6H20.171H18.8281ZM37.8867 18.9429L21.1724 18.9429V19.9429L37.8867 19.9429V18.9429Z" fill="#1B1B1B"/>
</svg>
