<svg width="24" height="21" viewBox="0 0 24 21" fill="none" xmlns="http://www.w3.org/2000/svg">
<path d="M23.9228 7.41328C23.9228 7.41328 21.6748 3.78461 21.6735 3.78255C21.6729 3.78158 21.6239 3.67641 21.4729 3.61835L12.1052 0.422165C12.0364 0.398707 11.9636 0.398707 11.8947 0.422165L2.52709 3.61835C2.52709 3.61835 2.3992 3.66294 2.32235 3.78829C2.29157 3.83849 0.0771769 7.41328 0.0771769 7.41328C0.00293708 7.53328 -0.0193562 7.68897 0.017337 7.83211C0.0540836 7.97524 0.145337 8.08846 0.262723 8.1366L2.24517 8.94957V15.4503C2.24517 15.6397 2.33962 15.8103 2.48448 15.8826L11.8522 20.56C11.88 20.5739 11.9153 20.5955 12 20.5955C12.0846 20.5955 12.1478 20.56 12.1478 20.56L21.5155 15.8826C21.6604 15.8103 21.7548 15.6396 21.7548 15.4503V8.94944L23.7372 8.13648C23.8546 8.08834 23.9459 7.97504 23.9826 7.83198C24.0193 7.68897 23.997 7.53328 23.9228 7.41328ZM1.01664 7.45781L2.784 4.60422L3.49882 4.84214L7.5218 6.18117L11.3263 7.44763L9.09502 10.7707L1.01664 7.45781ZM11.6129 19.4282L3.01936 15.1375V9.26696L9.10148 11.7615C9.14222 11.7783 9.1842 11.7862 9.22585 11.7862C9.34025 11.7862 9.4515 11.7248 9.52638 11.6131L11.613 8.50568L11.6129 19.4282ZM12 6.70175L4.07306 4.06301L12 1.35828L19.9269 4.06301L12 6.70175ZM20.9806 15.1375L12.387 19.4282V8.50581L14.4736 11.6132C14.5485 11.7248 14.6598 11.7863 14.7742 11.7863C14.8158 11.7863 14.8578 11.7784 14.8986 11.7616L20.9806 9.26709V15.1375ZM14.905 10.7708L12.6737 7.44776L21.216 4.60422L22.9834 7.45781L14.905 10.7708Z" fill="#1B1B1B"/>
</svg>
