<svg width="19" height="23" viewBox="0 0 19 23" fill="none" xmlns="http://www.w3.org/2000/svg">
<path fill-rule="evenodd" clip-rule="evenodd" d="M9.49966 0.349976C7.20767 0.349976 5.34966 2.208 5.34966 4.49998V5.99998H2.88891C2.38182 5.99998 1.955 6.37952 1.89576 6.88314L0.13105 21.8831C0.0611095 22.4776 0.525607 23 1.1242 23H17.8751C18.4737 23 18.9382 22.4776 18.8683 21.8831L17.1036 6.88314C17.0443 6.37952 16.6175 5.99998 16.1104 5.99998H13.6497V4.49998C13.6497 2.208 11.7916 0.349976 9.49966 0.349976ZM12.3497 7.29998V8.99998C12.3497 9.35896 12.6407 9.64998 12.9997 9.64998C13.3586 9.64998 13.6497 9.35896 13.6497 8.99998V7.29998H15.8436L17.5378 21.7H1.46156L3.15568 7.29998H5.34966V8.99998C5.34966 9.35896 5.64067 9.64998 5.99966 9.64998C6.35864 9.64998 6.64966 9.35896 6.64966 8.99998V7.29998H12.3497ZM12.3497 5.99998V4.49998C12.3497 2.92597 11.0737 1.64998 9.49966 1.64998C7.92565 1.64998 6.64966 2.92597 6.64966 4.49998V5.99998H12.3497Z" fill="black"/>
</svg>
