<svg width="15" height="24" viewBox="0 0 15 24" fill="none" xmlns="http://www.w3.org/2000/svg">
<path fill-rule="evenodd" clip-rule="evenodd" d="M7.71379 12.6691C6.22576 11.2567 4.42417 9.02832 4.3598 5.65424L6.31979 5.35574C6.78063 6.93932 8.13719 9.19807 11.5236 12.1335C11.2865 11.6665 11.0488 11.1756 10.8181 10.6675C10.0573 8.9927 9.35686 7.0987 9.00668 5.22837C8.7458 3.83496 8.66886 2.39912 8.94661 1.05765C8.45773 1.15646 7.74994 1.41011 6.81968 2.01937L6.67878 2.11164C6.57115 2.1921 6.41689 2.31123 6.23319 2.46397C5.85631 2.77733 5.36652 3.22303 4.90296 3.7578C3.92874 4.88169 3.28935 6.14038 3.55059 7.30873L3.55086 7.30994C3.65487 7.77779 3.69129 8.40639 3.33981 9.06375C3.00305 9.6936 2.38745 10.2033 1.51267 10.6328L1.50971 10.6343C1.483 10.6473 1.45674 10.6596 1.43547 10.6696L1.42333 10.6752C1.40588 10.6834 1.39133 10.6902 1.37618 10.6974C1.36089 10.7047 1.34771 10.7111 1.33614 10.7169C1.33639 10.7192 1.33666 10.7215 1.33695 10.7238C1.33826 10.7282 1.33969 10.733 1.34126 10.7381C1.35347 10.7779 1.37156 10.8317 1.39454 10.8877C1.4163 10.9406 1.4372 10.9827 1.45439 11.0117C1.48292 11.0337 1.5162 11.0616 1.55126 11.096C1.63264 11.1753 1.74125 11.2934 1.82645 11.4484C1.91107 11.6024 2.03188 11.9051 1.93222 12.2731C1.82973 12.6516 1.56207 12.8522 1.40198 12.9402C1.37553 12.9547 1.3493 12.9678 1.32361 12.9795L1.92831 13.6564L1.27903 14.3191L1.26982 14.3293C1.25869 14.3419 1.24015 14.3636 1.21755 14.3926L1.98892 14.2852L1.8075 15.5919C1.80757 15.5914 1.8076 15.5912 1.8075 15.5919L1.80603 15.6043C1.80456 15.6172 1.8022 15.6394 1.79963 15.6696C1.79446 15.7304 1.7886 15.8212 1.78713 15.9315C1.7841 16.159 1.80034 16.4357 1.86182 16.691C1.92491 16.953 2.01672 17.1146 2.10601 17.2014C2.16697 17.2607 2.2866 17.3488 2.5984 17.3388C2.83768 17.3306 3.1764 17.2712 3.67657 17.1834C4.13979 17.102 4.70275 17.0047 5.26864 16.9684C6.21162 16.9078 7.49359 16.997 8.35686 17.95C8.71422 18.0408 9.06853 18.2542 9.39708 18.6072C10.0642 19.324 10.7065 20.701 11.2286 23.3063C11.2333 23.316 11.2383 23.3263 11.2438 23.3372C11.2634 23.3768 11.287 23.423 11.314 23.4732C11.3981 23.1061 11.4831 22.5793 11.5494 21.8393L11.761 21.8583C11.6523 21.7178 11.5986 21.6068 11.5987 21.6065L11.5984 21.6076L11.5974 21.6104C11.5969 21.6119 11.5968 21.6124 11.5969 21.6118L11.6016 21.5962C11.6071 21.5777 11.6167 21.5431 11.6284 21.4932C11.6519 21.3934 11.684 21.2331 11.7084 21.019C11.7571 20.5912 11.7753 19.9488 11.6334 19.1445C11.3525 17.5514 10.429 15.2437 7.71379 12.6691ZM12.5454 21.9286C12.531 22.0896 12.5156 22.2429 12.4992 22.3888C11.9344 27.4307 10.2711 23.6192 10.2711 23.6192C9.23543 18.3382 7.8358 18.9185 7.8358 18.9185C7.04062 17.607 5.19623 17.9315 3.78397 18.1798C3.34224 18.2575 2.94278 18.3278 2.63094 18.3382C1.28198 18.3818 0.90187 17.3132 0.811605 16.4654C0.753034 15.9152 0.816501 15.4581 0.816501 15.4581C0.283819 15.5322 0.156235 15.3837 0.156235 15.3837C0.152321 15.3775 0.148492 15.3712 0.144743 15.3649C-0.343285 14.5462 0.559262 13.6249 0.559262 13.6249C0.205744 13.2292 0.0755538 12.7992 0.113939 12.5026C0.114884 12.4953 0.115931 12.4881 0.11708 12.4809C0.144264 12.312 0.22822 12.1897 0.358119 12.1471C0.40241 12.1327 0.466988 12.126 0.537765 12.121C0.53822 12.1209 0.538676 12.1209 0.539131 12.1209C0.539249 12.1209 0.539013 12.1209 0.539131 12.1209C0.543256 12.1206 0.547754 12.1203 0.551916 12.12C0.567975 12.1189 0.5843 12.1179 0.60073 12.1169C0.854055 12.101 1.13257 12.0835 0.852171 11.811C0.844207 11.803 0.834898 11.7973 0.825559 11.7916C0.819103 11.7876 0.812634 11.7836 0.806584 11.7789C0.634301 11.6441 0.51151 11.3842 0.438266 11.1877C0.430484 11.1668 0.423261 11.1466 0.416597 11.1274C0.376927 11.0129 0.357083 10.9318 0.357083 10.9318C0.22101 10.134 0.684712 9.91687 1.0003 9.76913C1.02523 9.75745 1.04925 9.74621 1.07196 9.73515C2.6185 8.97587 2.72048 8.18276 2.57469 7.52694C2.15155 5.63456 3.41393 3.83333 4.5776 2.63431C5.38621 1.80114 6.14717 1.25876 6.26182 1.17862C6.26364 1.17735 6.26529 1.1762 6.26678 1.17516C6.27331 1.17061 6.27668 1.16831 6.27668 1.16831C6.27595 1.17036 6.2753 1.17245 6.27466 1.17451C6.27374 1.17746 6.27284 1.18032 6.2718 1.18281C6.27521 1.18058 6.27861 1.17835 6.28202 1.17612C6.28397 1.17485 6.28592 1.17357 6.28787 1.1723C6.76567 0.860517 7.20053 0.62752 7.59243 0.455046C8.27408 0.15506 8.82576 0.0381677 9.24733 0.00827616C9.75249 -0.0275424 10.0708 0.0615613 10.2021 0.110248C10.2481 0.127323 10.2711 0.139426 10.2711 0.139426C8.565 4.17718 11.6187 10.4477 13.5661 13.792C14.3796 15.1889 15 16.0754 15 16.0754C14.2083 15.523 13.477 14.9866 12.8019 14.466C11.6474 13.5757 10.6573 12.7318 9.81011 11.9338C9.5552 11.6937 9.31324 11.4577 9.08365 11.2259C9.08354 11.2258 9.08377 11.226 9.08365 11.2259C8.98107 11.1223 8.88061 11.0192 8.78292 10.9173C8.61335 10.7404 8.45106 10.566 8.29578 10.3941C6.5958 8.51197 5.73583 6.92792 5.35962 5.63517C5.40522 8.02551 6.42825 9.77773 7.55383 11.0645C7.72319 11.2582 7.89487 11.4412 8.0659 11.6144C8.17858 11.7285 8.29097 11.8382 8.40223 11.9438C8.65006 12.1788 8.88419 12.4122 9.10535 12.6437C13.0462 16.7685 12.866 20.2851 12.6503 21.4869C12.3727 21.3916 12.0253 21.3867 11.6068 21.5837L12.5819 21.8026C12.5609 21.8832 12.5462 21.9263 12.5454 21.9286ZM1.34777 10.9387C1.34755 10.9386 1.3476 10.9386 1.34777 10.9387Z" fill="#1B1B1B"/>
</svg>
