<svg width="18" height="18" viewBox="0 0 18 18" fill="none" xmlns="http://www.w3.org/2000/svg">
<path fill-rule="evenodd" clip-rule="evenodd" d="M5.42475 3.20024C5.61891 3.3944 5.97933 3.58126 6.39915 3.75H1.125C0.50475 3.75 0 4.25475 0 4.875V7.875C0 8.49525 0.50475 9 1.125 9H1.5V16.125C1.5 17.1585 2.34075 18 3.375 18H9H14.625C15.6593 18 16.5 17.1585 16.5 16.125V9H16.875C17.4953 9 18 8.49525 18 7.875V4.875C18 4.25475 17.4953 3.75 16.875 3.75H11.6042C12.0232 3.58146 12.3828 3.39489 12.5766 3.20103C12.9306 2.84703 13.1256 2.37603 13.1256 1.87503C13.1256 1.37403 12.9306 0.90303 12.5759 0.54978C11.8454 -0.18072 10.6559 -0.18222 9.92463 0.54978C9.57019 0.904217 9.24009 1.81269 9.0001 2.6253C8.76008 1.8123 8.42984 0.903154 8.07526 0.548987C7.34475 -0.182263 6.15525 -0.182263 5.424 0.548987C5.07 0.902987 4.875 1.37399 4.875 1.87499C4.875 2.37599 5.07 2.84699 5.42475 3.20024ZM8.99587 4.5H1.125C0.91875 4.5 0.75 4.668 0.75 4.875V7.875C0.75 8.082 0.91875 8.25 1.125 8.25H1.875H9H16.125H16.875C17.0812 8.25 17.25 8.082 17.25 7.875V4.875C17.25 4.668 17.0812 4.5 16.875 4.5H9.00536C9.00378 4.50002 9.00221 4.50003 9.00063 4.50003C8.99904 4.50003 8.99746 4.50002 8.99587 4.5ZM6.75 0.750737C6.462 0.750737 6.17325 0.860237 5.95425 1.07924C5.742 1.29224 5.625 1.57424 5.625 1.87499C5.625 2.17574 5.742 2.45774 5.95425 2.67074C6.246 2.96249 7.4655 3.35624 8.49301 3.61874C8.22976 2.59124 7.83676 1.37174 7.545 1.07999C7.32675 0.860237 7.038 0.750737 6.75 0.750737ZM9.375 17.25H14.625C15.2452 17.25 15.75 16.7453 15.75 16.125V9H9.375V17.25ZM8.625 9V17.25H3.375C2.75475 17.25 2.25 16.7453 2.25 16.125V9H8.625ZM10.4549 1.07928C10.6739 0.860281 10.9626 0.750781 11.2506 0.750781C11.5386 0.750781 11.8274 0.860281 12.0464 1.07928C12.2586 1.29228 12.3756 1.57428 12.3756 1.87503C12.3756 2.17578 12.2586 2.45778 12.0456 2.67003C11.7539 2.96178 10.5344 3.35553 9.50688 3.61803C9.77013 2.59053 10.1631 1.37103 10.4549 1.07928Z" fill="#1B1B1B"/>
</svg>
