<svg width="22" height="20" viewBox="0 0 22 20" fill="none" xmlns="http://www.w3.org/2000/svg">
<path fill-rule="evenodd" clip-rule="evenodd" d="M11 6.41048L9.85956 4.32635C9.54607 3.75343 9.03442 3.00865 8.30148 2.44181L8.99197 1.549L8.30148 2.44181C7.55916 1.86771 6.74305 1.58906 5.84375 1.58906C3.32771 1.58906 1.3 3.6305 1.3 6.62755C1.3 8.17959 1.90522 9.53934 3.16119 11.0549C4.4501 12.6101 6.31991 14.2091 8.72233 16.2565L8.72236 16.2565L8.72498 16.2587C9.41561 16.8473 10.1902 17.5074 11 18.211C11.8103 17.5069 12.5853 16.8465 13.2767 16.2573L13.2782 16.256L13.2782 16.256C15.6803 14.2089 17.55 12.61 18.8389 11.0548C20.0948 9.53935 20.7 8.17959 20.7 6.62755C20.7 3.6305 18.6723 1.58906 16.1562 1.58906C15.2569 1.58906 14.4408 1.86771 13.6985 2.44181L12.9082 1.41991L13.6985 2.44181C12.9656 3.00864 12.4539 3.75345 12.1404 4.32638L11 6.41048ZM11.4039 18.563L11.4032 18.5624ZM10.2003 2.50374C9.89668 2.12781 9.53076 1.7491 9.09679 1.41347C8.13205 0.667359 7.03755 0.289062 5.84375 0.289062C2.5123 0.289062 0 3.01401 0 6.62755C0 10.5314 3.13427 13.2024 7.87914 17.2459L7.87959 17.2463C8.68523 17.9329 9.59837 18.7111 10.5475 19.541C10.6726 19.6506 10.8333 19.7109 11 19.7109C11.1667 19.7109 11.3274 19.6506 11.4525 19.5411C12.4019 18.7108 13.3152 17.9325 14.1214 17.2455C18.8657 13.2024 22 10.5314 22 6.62755C22 3.01401 19.4877 0.289062 16.1562 0.289062C14.9624 0.289062 13.8679 0.667359 12.9032 1.41347C12.4692 1.74909 12.1033 2.12781 11.7997 2.50374C11.4562 2.929 11.1924 3.35068 11 3.70233C10.8076 3.35066 10.5438 2.92899 10.2003 2.50374Z" fill="black"/>
</svg>
