<svg width="40" height="40" viewBox="0 0 40 40" fill="none" xmlns="http://www.w3.org/2000/svg">
<path fill-rule="evenodd" clip-rule="evenodd" d="M14.0235 0.0364156C12.5269 0.219158 10.6229 0.793057 9.28382 1.46506C6.55086 2.83651 4.06651 5.37059 2.79482 8.08419C0.359138 13.2815 1.22586 19.2257 5.05959 23.6178C5.59785 24.2345 7.04769 25.5017 7.5626 25.8055C7.72991 25.9043 7.86682 26.0195 7.86682 26.0616C7.86682 26.1037 6.59855 26.1382 5.04845 26.1382H2.22997L1.62946 26.4379C0.985747 26.7592 0.573252 27.185 0.220564 27.8923C0.0122156 28.3101 0 28.4506 0 30.4334C0 32.5308 0.000195324 32.5326 0.271674 33.0848C0.58449 33.7211 1.14758 34.2693 1.79598 34.5688L2.24766 34.7774L14.7145 34.8036L27.1813 34.8298L27.3512 37.1464C27.4447 38.4206 27.5443 39.5425 27.5726 39.6395C27.6008 39.7365 27.7329 39.8574 27.8662 39.9079C28.0033 39.9601 29.8182 40 32.0491 40C35.7438 40 36.0038 39.9887 36.2141 39.8186C36.4338 39.6409 36.4494 39.4981 36.9966 32.6193C37.483 26.5065 37.5619 25.1543 37.608 22.1358L37.661 18.6703L38.1594 17.4594C39.1307 15.0989 39.7276 12.6314 39.9327 10.1287C40.0237 9.01635 40.0228 8.56281 39.9277 8.01049C39.5272 5.68336 37.5016 3.83739 34.4595 3.02735C33.6426 2.80986 33.321 2.77706 32.0048 2.77706C30.6885 2.77706 30.3669 2.80986 29.55 3.02735C28.5231 3.30078 27.3628 3.80029 26.6713 4.26642C26.4281 4.43033 26.2062 4.56445 26.1779 4.56445C26.1498 4.56445 25.7761 4.24671 25.3477 3.85838C23.3031 2.00528 21.011 0.812581 18.4405 0.264257C17.5176 0.0674582 14.8828 -0.0685244 14.0235 0.0364156ZM18.2155 1.24337C20.626 1.7341 22.8257 2.8776 24.6116 4.56855L25.3892 5.30489L25.0176 5.78879C24.5118 6.44732 24.2029 7.17761 24.0706 8.02747L23.9598 8.7395L23.5453 8.18942C22.9917 7.45484 21.9351 6.45318 21.169 5.93648C16.1774 2.5705 9.40764 4.34842 6.69266 9.73824C4.16961 14.747 6.30802 20.8213 11.4403 23.2237C12.7579 23.8405 13.9314 24.1031 15.4405 24.1187C17.2311 24.1374 18.4433 23.8494 20.0118 23.0329C22.3749 21.8029 24.1708 19.6676 25.0768 17.0108C25.2824 16.4077 25.3591 16.2743 25.4136 16.4251C25.4524 16.5325 25.6632 17.0377 25.8821 17.5477L26.2802 18.4751L26.3129 20.1132C26.3502 21.978 26.3991 21.8305 25.3675 22.9656C24.3038 24.1359 22.9431 25.1916 21.6732 25.8317L21.0652 26.1382L15.5655 26.1368L10.0656 26.1354L9.33269 25.7369C6.10993 23.9845 3.67825 20.8248 2.80342 17.2527C2.34206 15.3689 2.3063 13.5076 2.69426 11.5746C3.83872 5.87284 8.50604 1.64966 14.3655 1.01387C15.1866 0.924842 17.2568 1.04823 18.2155 1.24337ZM33.0309 3.79366C35.858 4.13835 38.2046 5.67799 38.8049 7.58233C38.9256 7.96519 38.9677 8.41414 38.9578 9.21139C38.9268 11.6806 38.2755 14.5651 37.1082 17.4013L36.827 18.0846L35.442 18.1117C34.6803 18.1266 34.057 18.1023 34.057 18.0577C34.057 18.0131 34.2041 17.5396 34.3839 17.0056C34.5636 16.4716 34.8128 15.6478 34.9376 15.175L35.1644 14.3154L34.9549 14.106C34.7827 13.9341 34.6979 13.9134 34.4796 13.99C34.2594 14.0673 34.1831 14.1916 34.0334 14.7173C33.9341 15.066 33.6532 15.9772 33.4091 16.7424L32.9651 18.1334H32.009H31.0528L30.8067 17.4257C30.5324 16.6371 30.2678 15.7999 29.9587 14.7425C29.7853 14.1493 29.7127 14.026 29.5064 13.9743C29.2219 13.903 28.8776 14.1553 28.8776 14.4352C28.8776 14.5896 29.7291 17.508 29.9067 17.9626C29.9684 18.1204 29.8679 18.1334 28.5908 18.1334H27.2081L26.9344 17.5233C25.6633 14.6899 24.7176 9.96413 25.056 8.13788C25.334 6.63768 26.3155 5.49085 28.0177 4.6772C29.8155 3.81777 31.2111 3.57187 33.0309 3.79366ZM17.8347 5.49056C19.3005 5.88269 20.8715 6.79718 21.9504 7.88612C23.2806 9.22886 23.966 10.5439 24.3702 12.5293C24.5985 13.6503 24.6255 13.9509 24.559 14.6371C24.273 17.5927 22.4369 20.4447 19.8381 21.9698C19.4618 22.1907 18.7142 22.5265 18.1768 22.7161C17.2094 23.0576 17.1832 23.0611 15.5871 23.0611C13.6919 23.0611 13.2191 22.9598 11.7118 22.2309C9.19724 21.0147 7.4381 18.7952 6.8283 16.0691C6.57305 14.9283 6.61321 13.1366 6.92026 11.9657C7.79851 8.6166 10.348 6.18658 13.828 5.38181C14.5935 5.20483 17.0119 5.27043 17.8347 5.49056ZM36.5978 21.6965V24.2834H32.0048H27.4117V21.6965V19.1096H32.0048H36.5978V21.6965ZM26.3825 24.8447L26.4522 26.1382H24.9204C24.078 26.1382 23.4034 26.0996 23.4213 26.0525C23.4392 26.0054 23.8057 25.7013 24.2357 25.3767C24.6657 25.0521 25.3009 24.4988 25.6472 24.1471C25.9935 23.7955 26.285 23.5176 26.2949 23.5295C26.3047 23.5415 26.3442 24.1333 26.3825 24.8447ZM36.5488 25.7233C36.4811 26.2853 35.5228 38.4239 35.5228 38.7182V38.9262H32.0048C29.6149 38.9262 28.4867 38.8934 28.4867 38.8238C28.4867 38.6608 27.5231 26.5453 27.4564 25.8697L27.3962 25.2596H32.0004H36.6046L36.5488 25.7233ZM11.3386 27.3828C11.5797 28.5558 11.9067 29.1753 12.6677 29.9004C14.0051 31.1746 15.8415 31.4479 17.52 30.6225C18.6368 30.0733 19.5597 28.8759 19.8045 27.6587L19.9139 27.1143H23.223C25.0431 27.1143 26.5353 27.1254 26.5391 27.1388C26.606 27.3747 27.0683 33.7257 27.0225 33.7791C26.9869 33.8205 21.4419 33.8425 14.7004 33.8279L2.44311 33.8012L1.98156 33.5301C1.68291 33.3548 1.42521 33.0978 1.25175 32.802C0.996496 32.3669 0.98174 32.2716 0.9448 30.8238C0.898576 29.007 1.00256 28.3796 1.43762 27.8523C2.04899 27.1114 1.99348 27.1189 6.91215 27.1165L11.2835 27.1143L11.3386 27.3828ZM18.9097 27.1454C18.9097 27.1626 18.84 27.4109 18.7549 27.6973C18.3817 28.9525 17.4183 29.8122 16.1154 30.0529C14.6661 30.3205 13.0814 29.4178 12.5608 28.0281C12.1864 27.0283 11.8968 27.1143 15.6359 27.1143C17.4365 27.1143 18.9097 27.1283 18.9097 27.1454Z" fill="#1B1B1B"/>
</svg>
