<svg width="48" height="56" viewBox="0 0 48 56" fill="none" xmlns="http://www.w3.org/2000/svg">
<path fill-rule="evenodd" clip-rule="evenodd" d="M42.1943 27.2126V24.9729C42.1943 18.8609 39.1675 13.4415 34.5304 10.1355L34.3244 9.98862L34.2857 9.73861C33.5039 4.68234 29.1559 0.924707 23.9839 0.924707C18.8121 0.924707 14.4639 4.68235 13.6819 9.73863L13.6433 9.98863L13.4373 10.1355C8.80018 13.4415 5.77344 18.8609 5.77344 24.9729V27.2137L5.23036 27.2654C3.16822 27.462 1.54634 29.2048 1.54248 31.3162L1.53751 34.0545C1.53553 35.1461 1.95792 36.1698 2.72911 36.9424C3.50048 37.715 4.52339 38.1393 5.61494 38.1393H6.58969L6.71506 38.5725C9.03136 46.5757 15.4391 52.9622 23.8551 55.0608C23.8934 55.0704 23.9324 55.0751 23.9715 55.0751C24.01 55.0751 24.0489 55.0704 24.0872 55.061C24.0874 55.0609 24.087 55.0611 24.0872 55.061L24.1039 55.0568L24.1052 55.0565C26.0351 54.5758 27.8973 53.8571 29.6401 52.9201C29.874 52.7944 29.9619 52.5027 29.836 52.2686C29.7104 52.0349 29.419 51.9468 29.1843 52.0728C27.5871 52.9315 25.8855 53.599 24.1235 54.0589L23.9716 54.0986L23.8198 54.0588C13.7473 51.4193 6.73545 42.3531 6.73545 31.9166V30.0572L7.66957 29.8457C13.7543 28.4686 19.6161 25.9817 24.8592 22.5759L25.3244 22.2737L25.6621 22.7137C29.1933 27.3151 34.6678 30.0335 40.5079 30.0335H41.2322V31.9104C41.2322 35.6772 40.293 39.4175 38.5153 42.7293C38.3896 42.9634 38.4776 43.2551 38.7115 43.3806C38.7844 43.4198 38.8618 43.438 38.9382 43.438C39.1115 43.438 39.2766 43.3452 39.3628 43.1844C40.1499 41.7181 40.778 40.1694 41.242 38.572L41.3677 38.1394H42.3253C43.4169 38.1394 44.4398 37.7151 45.2112 36.9425C45.9823 36.1701 46.4047 35.1463 46.4028 34.0545L46.3978 31.3163C46.394 29.2129 44.7846 27.4749 42.7339 27.2673L42.1943 27.2126ZM45.6358 37.3665C44.7519 38.2517 43.5762 38.7394 42.3253 38.7394H41.8182C41.3428 40.3762 40.699 41.9639 39.8916 43.4681C39.6966 43.8314 39.3236 44.038 38.9382 44.038C38.7655 44.038 38.5905 43.9967 38.4278 43.9093C37.9017 43.627 37.7042 42.9715 37.9866 42.4455C39.7174 39.2212 40.6322 35.5784 40.6322 31.9104V30.6335H40.5079C34.4806 30.6335 28.8304 27.8278 25.1861 23.079C19.8842 26.523 13.9567 29.0379 7.80204 30.4309L7.33545 30.5365V31.9166C7.33545 42.0801 14.163 50.908 23.9719 53.4784C25.6882 53.0304 27.3453 52.3803 28.9004 51.5443C29.4266 51.2616 30.0819 51.4586 30.3645 51.9845C30.6473 52.5104 30.4501 53.166 29.9243 53.4486C28.1373 54.4093 26.2282 55.146 24.2502 55.6387L24.2321 55.6432C24.1466 55.6644 24.0591 55.6751 23.9715 55.6751C23.8836 55.6751 23.7958 55.6644 23.7099 55.643C15.0827 53.4917 8.51338 46.9441 6.13872 38.7393H5.61494C4.36404 38.7393 3.18839 38.2516 2.30451 37.3663C1.42074 36.481 0.935238 35.3043 0.937508 34.0534L0.942481 31.3151C0.946913 28.8914 2.80721 26.8937 5.17344 26.6682V24.9729C5.17344 18.6581 8.30128 13.0603 13.089 9.64693C13.9161 4.29869 18.5156 0.324707 23.9839 0.324707C29.4524 0.324707 34.0518 4.29869 34.8787 9.64693C39.6664 13.0603 42.7943 18.6581 42.7943 24.9729V26.6703C45.1476 26.9086 46.9935 28.9008 46.9978 31.3152L47.0028 34.0534C47.0049 35.3045 46.5195 36.4812 45.6358 37.3665ZM32.8026 37.7789C28.7268 38.5232 25.4884 41.7617 24.7448 45.8341L24.7401 45.8595C24.5667 46.809 25.0881 47.7665 25.98 48.1359L31.8733 50.5773L36.6546 55.3586C36.8658 55.5696 37.1424 55.6753 37.4191 55.6753C37.6957 55.6753 37.9723 55.5696 38.1835 55.3586C38.6056 54.9365 38.6056 54.2519 38.1835 53.8297L34.0147 49.6609L36.4695 47.2061L41.8402 52.5768C42.2624 52.9989 42.9467 52.9989 43.3691 52.5768C43.7913 52.1547 43.7913 51.4701 43.3691 51.0479L37.3967 45.0757L35.1 39.0711C34.7453 38.1441 33.7799 37.6003 32.8026 37.7789ZM34.5396 39.2855C34.5396 39.2855 34.5396 39.2855 34.5396 39.2855C34.288 38.6281 33.6033 38.2425 32.9105 38.3692C29.08 39.0687 26.0337 42.1151 25.335 45.9419L25.3304 45.9673C25.2078 46.6388 25.579 47.3204 26.2096 47.5816L32.2132 50.0687L37.0788 54.9342C37.0788 54.9343 37.0788 54.9342 37.0788 54.9342C37.173 55.0284 37.2952 55.0753 37.4191 55.0753C37.5429 55.0753 37.665 55.0285 37.7592 54.9344C37.947 54.7465 37.9471 54.4419 37.7592 54.2539L33.1662 49.6609L36.4695 46.3576L42.2643 52.1525C42.4522 52.3403 42.7567 52.3404 42.9449 52.1526M34.5396 39.2855L36.882 45.4095L42.9448 51.4721C42.9448 51.4721 42.9448 51.4721 42.9448 51.4721C43.1326 51.66 43.1325 51.9648 42.9449 52.1526M3.41011 36.2628C2.82239 35.674 2.49805 34.8884 2.49963 34.0563C2.49963 34.0563 2.49963 34.0564 2.49963 34.0563L2.50461 31.3181C2.50742 29.7901 3.61522 28.5202 5.06699 28.2585L5.77344 28.1311V31.9166C5.77344 33.4667 5.92196 34.9874 6.20658 36.4636L6.34416 37.1772H5.61494C4.78282 37.1772 3.99792 36.8514 3.41011 36.2628ZM3.09963 34.0574C3.09834 34.7301 3.35952 35.3628 3.83476 35.8389C4.1597 36.1643 4.5579 36.3898 4.99226 36.4999C5.1933 36.5509 5.40208 36.5772 5.61494 36.5772H5.61743C5.6166 36.5729 5.61577 36.5686 5.61494 36.5643C5.57728 36.3684 5.54196 36.1717 5.50901 35.9743C5.28805 34.651 5.17344 33.295 5.17344 31.9166V28.849C4.96332 28.8869 4.76214 28.9509 4.57344 29.0377C3.70918 29.435 3.10647 30.3079 3.10461 31.3192L3.09963 34.0574ZM33.3508 9.28498L31.9568 8.60325C29.5478 7.42507 26.8426 6.76245 23.9839 6.76245C21.1252 6.76245 18.42 7.42507 16.011 8.60334L14.617 9.28519L15.1898 7.84291C16.5886 4.32069 20.02 1.88683 23.9839 1.88683C27.9479 1.88683 31.3793 4.32069 32.7781 7.84279L33.3508 9.28498ZM41.2323 29.0713H40.508C35.0121 29.0713 29.8563 26.5339 26.5043 22.2318L26.1185 21.7367L26.6306 21.3736C27.3709 20.8486 28.0975 20.3059 28.8078 19.7444C29.0162 19.5795 29.0516 19.2768 28.8868 19.0684C28.722 18.8602 28.4193 18.8249 28.211 18.9895C22.1615 23.7727 14.9899 27.2007 7.46824 28.9048L6.73567 29.0707V24.9729C6.73556 15.4616 14.4726 7.72457 23.9839 7.72457C33.4953 7.72457 41.2323 15.4616 41.2323 24.9729V29.0713ZM27.839 18.5188C28.3073 18.1487 28.9872 18.2282 29.3576 18.6964C29.7277 19.1647 29.6483 19.8446 29.1799 20.215C28.6179 20.6594 28.046 21.0919 27.4656 21.513C27.3036 21.6306 27.1409 21.7473 26.9776 21.863C27.101 22.0214 27.2269 22.1773 27.3553 22.3307C30.4956 26.0826 35.1027 28.3286 40.0323 28.4647C40.1905 28.4691 40.3491 28.4713 40.508 28.4713H40.6323V24.9729C40.6323 15.793 33.1639 8.32457 23.9839 8.32457C14.804 8.32457 7.33556 15.793 7.33567 24.9729V28.3196C7.53592 28.2742 7.73593 28.2276 7.93567 28.1798C15.1512 26.4517 22.0208 23.119 27.839 18.5188ZM41.6125 37.181L41.7524 36.462C42.0438 34.9644 42.1944 33.4391 42.1944 31.9102V28.1277L42.9075 28.2645C44.3424 28.5398 45.433 29.802 45.4358 31.318L45.4408 34.0561C45.4408 34.0561 45.4408 34.056 45.4408 34.0561C45.4424 34.8883 45.1182 35.6739 44.5302 36.2627C43.947 36.8469 43.1697 37.1717 42.3449 37.1766L41.6125 37.181ZM44.8408 34.0572L44.8358 31.3191C44.8339 30.3186 44.244 29.4533 43.3944 29.0502C43.206 28.9608 43.0048 28.8941 42.7944 28.8537V31.9102C42.7944 33.2732 42.6777 34.6328 42.4512 35.9727C42.417 36.1745 42.3804 36.3758 42.3413 36.5766C42.5556 36.5753 42.7657 36.5475 42.9678 36.4945C43.3945 36.3828 43.7856 36.1593 44.1056 35.8388C44.581 35.3627 44.8421 34.7301 44.8408 34.0572ZM19.2904 33.8087C19.7127 33.3866 19.7127 32.7021 19.2904 32.2798C18.8683 31.8577 18.184 31.8577 17.7617 32.2798C16.6335 33.4082 14.798 33.408 13.6698 32.2798C13.2475 31.8577 12.5632 31.8577 12.1408 32.2798C11.7187 32.7019 11.7187 33.3865 12.1408 33.8087C13.1264 34.7942 14.4211 35.2871 15.7157 35.2871C17.0103 35.2871 18.3048 34.7942 19.2904 33.8087ZM12.5651 33.3844C12.3773 33.1965 12.3773 32.892 12.5649 32.7042ZM12.5649 32.7042C12.753 32.5164 13.0576 32.5164 13.2455 32.7041C14.6079 34.0665 16.8233 34.0668 18.1859 32.7042C18.3738 32.5163 18.6784 32.5163 18.8662 32.7041M12.5651 33.3844C12.5651 33.3845 12.5651 33.3844 12.5651 33.3844ZM12.5651 33.3844C13.4333 34.2525 14.5732 34.6871 15.7157 34.6871C16.8582 34.6871 17.998 34.2526 18.8662 33.3844C19.054 33.1967 19.0541 32.892 18.8662 32.7041M35.7944 33.8087C36.2166 33.3866 36.2166 32.7021 35.7944 32.2798C35.3722 31.8577 34.6879 31.8577 34.2656 32.2798C33.1375 33.4079 31.302 33.4081 30.1737 32.2798C29.7514 31.8577 29.0671 31.8577 28.6447 32.2798C28.2226 32.7019 28.2226 33.3865 28.6447 33.8087C29.6303 34.7942 30.925 35.2871 32.2195 35.2871C33.5142 35.2871 34.8088 34.7942 35.7944 33.8087ZM29.069 33.3844C29.9372 34.2526 31.0771 34.6871 32.2195 34.6871C33.3621 34.6871 34.5019 34.2526 35.3701 33.3844C35.5579 33.1967 35.5581 32.8921 35.3702 32.7041C35.3701 32.7041 35.3702 32.7041 35.3702 32.7041M34.6899 32.7041C34.8779 32.5163 35.1824 32.5164 35.3702 32.7041ZM34.6899 32.7041C34.6898 32.7041 34.6899 32.704 34.6899 32.7041ZM34.6899 32.7041C33.3275 34.0663 31.112 34.0667 29.7494 32.7041C29.5615 32.5164 29.2571 32.5163 29.069 32.7041M29.069 33.3844C28.8812 33.1965 28.8814 32.8919 29.069 32.7041ZM32.3729 49.0933L26.2009 46.5365L26.2922 46.0569C26.9363 42.6728 29.6156 39.9863 32.9961 39.3319L33.4906 39.2362L35.9086 45.5576L32.3729 49.0933ZM31.3962 7.68555C29.1205 6.70594 26.6146 6.16245 23.9839 6.16245C21.3532 6.16245 18.8473 6.70593 16.5717 7.6856C16.2934 7.8054 16.0186 7.93172 15.7474 8.06436C15.8622 7.77545 15.9915 7.49435 16.1345 7.22192C17.6241 4.38431 20.596 2.48683 23.9839 2.48683C27.3719 2.48683 30.3438 4.38432 31.8334 7.22185C31.9764 7.49427 32.1057 7.77535 32.2204 8.06425C31.9493 7.93163 31.6744 7.80533 31.3962 7.68555ZM35.2092 45.4085L32.2321 48.3856L26.8816 46.1691C27.4798 43.0263 29.9707 40.5287 33.1102 39.9209L35.2092 45.4085Z" fill="#FEEBE7"/>
</svg>
