<svg width="20" height="20" viewBox="0 0 20 20" fill="none" xmlns="http://www.w3.org/2000/svg">
<path fill-rule="evenodd" clip-rule="evenodd" d="M3.33203 4.16667C2.8756 4.16667 2.4987 4.54357 2.4987 5V15C2.4987 15.4564 2.8756 15.8333 3.33203 15.8333H16.6654C17.1218 15.8333 17.4987 15.4564 17.4987 15V5C17.4987 4.54357 17.1218 4.16667 16.6654 4.16667H3.33203ZM0.832031 5C0.832031 3.6231 1.95513 2.5 3.33203 2.5H16.6654C18.0423 2.5 19.1654 3.6231 19.1654 5V15C19.1654 16.3769 18.0423 17.5 16.6654 17.5H3.33203C1.95513 17.5 0.832031 16.3769 0.832031 15V5Z" fill="black"/>
<path fill-rule="evenodd" clip-rule="evenodd" d="M0.982743 4.52215C1.24667 4.1451 1.76628 4.05341 2.14332 4.31734L9.99877 9.81615L17.8542 4.31734C18.2313 4.05341 18.7509 4.1451 19.0148 4.52215C19.2787 4.89919 19.187 5.4188 18.81 5.68272L10.4767 11.5161C10.1897 11.7169 9.80782 11.7169 9.52088 11.5161L1.18755 5.68272C0.81051 5.4188 0.718814 4.89919 0.982743 4.52215Z" fill="black"/>
</svg>
