<svg width="23" height="23" viewBox="0 0 23 23" fill="none" xmlns="http://www.w3.org/2000/svg">
<path fill-rule="evenodd" clip-rule="evenodd" d="M21.5504 6.02254L21.3922 8.86492L22.95 11.2375C23.0554 11.3974 23.0554 11.6049 22.95 11.7648L21.3826 14.1374L21.5408 16.9798C21.5498 17.1702 21.4467 17.3481 21.2772 17.4351L18.7464 18.7149L17.4667 21.2457C17.3811 21.4167 17.2021 21.5204 17.0113 21.5093L14.1689 21.3511L11.7963 22.9184C11.6373 23.0272 11.428 23.0272 11.2691 22.9184L8.89644 21.3511L6.05405 21.5093C5.86364 21.5183 5.68558 21.4153 5.5987 21.2457L4.31896 18.7149L1.78813 17.4351C1.617 17.3498 1.51346 17.1706 1.52451 16.9798L1.68272 14.1374L0.120075 11.7601C0.0146626 11.6 0.0146626 11.3928 0.120075 11.2329L1.6874 8.86024L1.52938 6.01786C1.52039 5.82744 1.62337 5.64938 1.793 5.56251L4.32364 4.28277L5.60357 1.75194C5.68895 1.58081 5.86794 1.47708 6.05892 1.48832L8.90112 1.64653L11.2737 0.0790134C11.4338 -0.0263988 11.6411 -0.0263988 11.801 0.0790134L14.1736 1.64653L17.0209 1.493C17.2111 1.48401 17.3891 1.58718 17.4762 1.75662L18.7559 4.28745L21.2868 5.56719C21.4577 5.65257 21.5614 5.83175 21.5504 6.02254ZM20.424 14.0369C20.415 13.9333 20.4422 13.8302 20.5006 13.7444L21.9818 11.5012L20.5006 9.25793C20.447 9.17011 20.4203 9.06845 20.424 8.96565L20.5725 6.27661L18.1808 5.06877C18.0896 5.02309 18.0156 4.94913 17.9699 4.85795L16.7619 2.46605L14.0731 2.61471C13.9697 2.6237 13.8664 2.59655 13.7806 2.53794L11.5374 1.05693L9.29431 2.53794C9.20631 2.59168 9.10464 2.61827 9.00185 2.61471L6.31281 2.46605L5.10497 4.85795C5.05928 4.94913 4.98533 5.02309 4.89414 5.06877L2.50224 6.27661L2.6509 8.96565C2.65989 9.06901 2.63274 9.17236 2.57414 9.25793L1.09312 11.5012L2.57414 13.7444C2.62787 13.8322 2.65465 13.9339 2.6509 14.0369L2.50224 16.7257L4.89882 17.9289C4.99019 17.9746 5.06415 18.0485 5.10984 18.1397L6.31768 20.5316L9.00672 20.3829H9.03068C9.12467 20.3833 9.21642 20.4118 9.29431 20.4644L11.5374 21.9456L13.7806 20.4644C13.8684 20.4106 13.9701 20.3841 14.0731 20.3878L16.7619 20.5363L17.9699 18.1446C18.0156 18.0534 18.0896 17.9792 18.1808 17.9336L20.5725 16.7257L20.424 14.0369ZM11.5359 4.34025C7.58642 4.34025 4.375 7.55166 4.375 11.5012C4.375 15.4508 7.58642 18.6622 11.5359 18.6622C15.4856 18.6622 18.697 15.4508 18.697 11.5012C18.697 7.55166 15.4856 4.34025 11.5359 4.34025ZM11.5359 17.7036C8.11367 17.7036 5.33363 14.9187 5.33363 11.5012C5.33363 8.08359 8.11367 5.29888 11.5359 5.29888C14.9615 5.29888 17.7384 8.07573 17.7384 11.5012C17.7384 14.9266 14.9615 17.7036 11.5359 17.7036ZM14.1008 9.36352L10.6451 12.6275L8.98659 10.9213C8.80273 10.732 8.49997 10.7277 8.31087 10.9116C8.12157 11.0956 8.11727 11.3982 8.30113 11.5875L10.2903 13.6294C10.4751 13.8153 10.7737 13.8217 10.9662 13.6437L14.7672 10.0585C14.8595 9.97146 14.9134 9.85126 14.917 9.7245C14.9206 9.59775 14.8736 9.47474 14.7863 9.38262C14.6013 9.19033 14.2963 9.18191 14.1008 9.36352Z" fill="#1B1B1B"/>
</svg>
