<svg width="22" height="20" viewBox="0 0 22 20" fill="none" xmlns="http://www.w3.org/2000/svg">
<path fill-rule="evenodd" clip-rule="evenodd" d="M16.6 9C16.6 13.1974 13.1974 16.6 9 16.6C4.80264 16.6 1.4 13.1974 1.4 9C1.4 4.80264 4.80264 1.4 9 1.4C13.1974 1.4 16.6 4.80264 16.6 9ZM15.3169 15.4107C13.692 17.0119 11.4614 18 9 18C4.02944 18 0 13.9706 0 9C0 4.02944 4.02944 0 9 0C13.9706 0 18 4.02944 18 9C18 11.0054 17.3441 12.8577 16.2351 14.3539L20.96 18.4723C21.2514 18.7263 21.2817 19.1685 21.0277 19.46C20.7737 19.7514 20.3315 19.7817 20.04 19.5277L15.3169 15.4107Z" fill="black"/>
</svg>
