<svg width="14" height="13" viewBox="0 0 14 13" fill="none" xmlns="http://www.w3.org/2000/svg">
<path fill-rule="evenodd" clip-rule="evenodd" d="M6.99967 1.25016C4.10018 1.25016 1.74967 3.60067 1.74967 6.50016C1.74967 9.39966 4.10018 11.7502 6.99967 11.7502C9.89917 11.7502 12.2497 9.39966 12.2497 6.50016C12.2497 3.60067 9.89917 1.25016 6.99967 1.25016ZM0.583008 6.50016C0.583008 2.95634 3.45585 0.0834961 6.99967 0.0834961C10.5435 0.0834961 13.4163 2.95634 13.4163 6.50016C13.4163 10.044 10.5435 12.9168 6.99967 12.9168C3.45585 12.9168 0.583008 10.044 0.583008 6.50016Z" fill="#868686"/>
<path fill-rule="evenodd" clip-rule="evenodd" d="M6.99967 2.41683C7.32184 2.41683 7.58301 2.678 7.58301 3.00016V6.13964L9.59388 7.14508C9.88204 7.28916 9.99883 7.63955 9.85476 7.9277C9.71068 8.21586 9.36029 8.33266 9.07213 8.18858L6.7388 7.02191C6.54118 6.9231 6.41634 6.72111 6.41634 6.50016V3.00016C6.41634 2.678 6.67751 2.41683 6.99967 2.41683Z" fill="#868686"/>
</svg>
