<svg width="12" height="9" viewBox="0 0 12 9" fill="none" xmlns="http://www.w3.org/2000/svg">
<path d="M12 1.06484C11.5583 1.24554 11.0844 1.36809 10.5865 1.4228C11.0949 1.14169 11.4841 0.695821 11.6685 0.166161C11.1916 0.426483 10.6652 0.615511 10.1043 0.717981C9.65517 0.275566 9.01629 0 8.30766 0C6.94817 0 5.84587 1.01777 5.84587 2.27233C5.84587 2.45026 5.86762 2.62404 5.90962 2.79022C3.86401 2.69535 2.0501 1.79044 0.83608 0.415404C0.623864 0.750514 0.503138 1.14099 0.503138 1.5578C0.503138 2.34641 0.93806 3.04223 1.59794 3.44932C1.19451 3.43687 0.81508 3.3344 0.482903 3.16407V3.19246C0.482903 4.29331 1.33175 5.21207 2.45728 5.42117C2.25106 5.47241 2.03361 5.5008 1.80865 5.5008C1.64969 5.5008 1.49596 5.48626 1.34524 5.45856C1.65867 6.36209 2.56751 7.01913 3.64432 7.03715C2.80222 7.64643 1.74041 8.00853 0.587138 8.00853C0.388432 8.00853 0.192706 7.99746 0 7.97738C1.08955 8.62336 2.38306 9 3.7733 9C8.3017 9 10.777 5.53681 10.777 2.53336L10.7687 2.23911C11.2524 1.9206 11.6708 1.52042 12 1.06484Z" fill="#1B1B1B"/>
</svg>
