<svg width="20" height="21" viewBox="0 0 20 21" fill="none" xmlns="http://www.w3.org/2000/svg">
<path fill-rule="evenodd" clip-rule="evenodd" d="M13.5998 5C13.5998 6.98822 11.988 8.6 9.9998 8.6C8.01158 8.6 6.3998 6.98822 6.3998 5C6.3998 3.01177 8.01158 1.4 9.9998 1.4C11.988 1.4 13.5998 3.01177 13.5998 5ZM14.9998 5C14.9998 7.76142 12.7612 10 9.9998 10C7.23838 10 4.9998 7.76142 4.9998 5C4.9998 2.23858 7.23838 0 9.9998 0C12.7612 0 14.9998 2.23858 14.9998 5ZM4.9998 12.3C2.40407 12.3 0.299805 14.4043 0.299805 17V20C0.299805 20.3866 0.613205 20.7 0.999805 20.7C1.3864 20.7 1.6998 20.3866 1.6998 20V17C1.6998 15.1775 3.17727 13.7 4.9998 13.7H14.9998C16.8223 13.7 18.2998 15.1775 18.2998 17V20C18.2998 20.3866 18.6132 20.7 18.9998 20.7C19.3864 20.7 19.6998 20.3866 19.6998 20V17C19.6998 14.4043 17.5955 12.3 14.9998 12.3H4.9998Z" fill="black"/>
</svg>
