<svg width="569" height="569" viewBox="0 0 569 569" fill="none" xmlns="http://www.w3.org/2000/svg">
<path opacity="0.2" fill-rule="evenodd" clip-rule="evenodd" d="M511.299 270.226C511.299 116.229 343.077 9.59894 203.727 80.0083L203.619 80.0626L203.619 80.0623C101.036 131.349 56.4658 262.113 108.521 365.206C111.929 371.955 112.501 379.786 110.111 386.959L74.1758 494.8L181.98 458.853C189.151 456.462 196.98 457.034 203.727 460.444C341.411 530.011 511.694 421.693 511.299 270.3L511.299 270.226ZM567.999 270.194C567.976 74.9372 356.12 -60.4861 178.217 29.3542C51.5854 92.7004 -5.34814 250.251 52.7105 379.857L2.45559 530.672C-0.940109 540.862 1.71125 552.097 9.30427 559.693C16.8973 567.288 28.1286 569.941 38.3157 566.544L189.073 516.275C363.065 594.438 568.461 459.088 567.999 270.194Z" stroke="#E48181" stroke-linecap="round" stroke-linejoin="round"/>
</svg>
